<svg width="19" height="15" viewBox="0 0 19 15" fill="none" xmlns="http://www.w3.org/2000/svg">
<path fill-rule="evenodd" clip-rule="evenodd" d="M11.7456 3.58702C11.7456 4.12722 11.2817 4.56532 10.7091 4.56532C10.1368 4.56532 9.67289 4.12724 9.67289 3.58702V2.60825C9.67289 2.24796 9.36396 1.95661 8.98011 1.95661H2.76545C2.3823 1.95661 2.07267 2.24843 2.07267 2.61052V12.3895C2.07267 12.7514 2.38208 13.0434 2.76545 13.0434H8.98011C9.36278 13.0434 9.67289 12.7511 9.67289 12.3918V11.413C9.67289 10.8728 10.1368 10.4347 10.7091 10.4347C11.2817 10.4347 11.7456 10.8728 11.7456 11.413V12.3918C11.7456 13.8322 10.5069 15 8.98011 15H2.76545C1.23695 15 0 13.8316 0 12.3895V2.61052C0 1.16755 1.23763 0 2.76545 0H8.98011C10.5084 0 11.7456 1.16708 11.7456 2.60825V3.58702ZM18.6943 8.16643L15.1583 11.4359C14.1813 12.3552 12.7155 10.976 13.6924 10.0561L14.8862 8.93703C15.1578 8.68228 15.0677 8.47552 14.6848 8.47552H9.9327C9.36471 8.47552 8.89865 8.0388 8.89865 7.50019C8.89865 6.96248 9.36156 6.52462 9.9327 6.52462H14.6848C15.0657 6.52462 15.1578 6.31809 14.8862 6.06311L13.6924 4.94377C12.7155 4.02417 14.1813 2.64466 15.1583 3.56404L18.6895 6.79982C19.1023 7.17808 19.103 7.78855 18.6943 8.1664L18.6943 8.16643Z" fill="#292020"/>
</svg>
